.
..............................Site Info...........................

 -   http://www.scenetime.com  *_*   


Scenetime .Always on time . friendly online private torrent community ..

     We care to share . Join us on  http://www.scenetime.com 

    Be the first to get new release at  http://www.scenetime.com

        Seed back for speed


...................................NFO:.................................................[align=center] [img]http://i.imgur.com/5SbaP.jpg[/img]

[b]BattleShip.2012.REPACK.TS.XViD.AC3-ADTRG[/b]

A fleet of ships is forced to do battle with an armada of unknown origins in order to discover and thwart their destructive goals.  

[url]http://www.imdb.com/title/tt1440129/[/url]

Source -  720p Cam             SMY                Thanks
Source -  missing scenes  -    Twix               Thanks
Source -  LiNe Audio      -    Dragon Exclusive   Thanks, awesome work bro

Complete name                            : BattleShip.2012.REPACK.TS.XViD.AC3-ADTRG.avi
Format                                   : AVI
Format/Info                              : Audio Video Interleave
File size                                : 1.52 GiB
Duration                                 : 2h 0mn
Overall bit rate                         : 1 805 Kbps
Writing library                          : VirtualDub build 34703/release

Video
ID                                       : 0
Format                                   : MPEG-4 Visual
Codec ID                                 : XVID
Bit rate                                 : 1 604 Kbps
Width                                    : 720 pixels
Height                                   : 320 pixels
Display aspect ratio                     : 2.25:1
Frame rate                               : 30.000 fps
Stream size                              : 1.35 GiB (89%)

Audio
ID                                       : 1
Format                                   : AC-3
Bit rate                                 : 192 Kbps
Channel(s)                               : 2 channels
Channel positions                        : Front: L R
Sampling rate                            : 48.0 KHz
Stream size                              : 163 MiB (11%)





[b]Encoder - LiMeY[/b]
K, i dropped the ball on first one, played fine on laptop, not so fine on WDTV.
removed long black screen at beginning , a few dupe frames and synced for your viewing pleasure.
might still be a few 1 second glitches on joins but at least 99% synced so enjoy.


Good things come in small packages, So feel the wrath of my compression

[img]http://i.imgur.com/wfpy0.jpg[/img]
[img]http://i.imgur.com/88fvE.jpg[/img]


[IMG]http://i.imgur.com/2739o.gif?1?8830[/IMG]

Dont fear the Atomic Dragon, Embrace it  :)


Greetz to DragonMaster,cOOkies,Coder,Mr Geek,LiMeY,DBratt420,AnimeKing,Cush,NoWoRRiEs Rayne, Mr & Mrs IrNbRu and the rest of the crew

Respect to CM8,Goon,Hope,mSD,InfernO,legend-rg and maybe a few more ;)




[/align]